<?xml version="1.0" encoding="utf-8"?>
<!-- Generator: Adobe Illustrator 16.0.0, SVG Export Plug-In . SVG Version: 6.00 Build 0)  -->
<!DOCTYPE svg PUBLIC "-//W3C//DTD SVG 1.1//EN" "http://www.w3.org/Graphics/SVG/1.1/DTD/svg11.dtd">
<svg version="1.1" id="Layer_1" xmlns="http://www.w3.org/2000/svg" xmlns:xlink="http://www.w3.org/1999/xlink" x="0px" y="0px"
	 width="152.999px" height="153px" viewBox="0 0 152.999 153" enable-background="new 0 0 152.999 153" xml:space="preserve">
<path d="M76.497,0C42.534,0,13.685,22.255,3.727,52.944c-0.163,0.211-0.262,0.476-0.265,0.781C1.213,60.921,0,68.571,0,76.5
	c0,20.297,7.96,38.759,20.904,52.467c0.095,0.164,0.226,0.312,0.405,0.425C35.241,143.924,54.823,153,76.497,153
	c42.183,0,76.502-34.318,76.502-76.5S118.68,0,76.497,0z M76.01,118.483c-23.147,0-41.979-18.833-41.979-41.983
	c0-23.15,18.832-41.983,41.979-41.983c23.15,0,41.984,18.833,41.984,41.983C117.994,99.649,99.16,118.483,76.01,118.483z
	 M76.902,31.539c6.309-3.166,12.871-5.639,19.886-6.942c12.554-2.332,25.276,0.493,36.726,5.726
	c0.052,0.023,0.102,0.036,0.153,0.053c10.204,12.622,16.332,28.667,16.332,46.124c0,8.309-1.406,16.291-3.959,23.746
	c-1.314-10.606-4.665-20.657-10.894-29.546c-5.77-8.234-13.775-14.548-22.216-19.854C104.955,39.403,91.808,31.832,76.902,31.539z
	 M129.96,26.14c-9.837-3.802-20.089-5.606-30.756-4.408c-10.019,1.125-19.403,5.16-28.113,10.059
	C56.434,33.393,43.88,42.066,36.904,54.316c0.218-7.099,1.175-14.094,3.41-20.917c3.884-11.851,12.11-21.509,21.889-28.993
	C66.829,3.491,71.606,3,76.497,3C97.549,3,116.548,11.91,129.96,26.14z M56.633,5.75c-7.421,6.443-13.656,14.152-17.373,23.387
	c-3.915,9.726-5.074,19.991-4.902,30.406C32.219,64.78,31.03,70.502,31.03,76.5c0,8.743,2.516,16.906,6.849,23.818
	c-6.335-3.689-12.202-8.019-17.228-13.467c-8.121-8.804-12.487-20.079-14.47-31.733C13.452,31.256,32.56,12.52,56.633,5.75z
	 M4.746,60.625c2.243,9.55,6.249,18.406,12.556,26.169c6.405,7.884,15.05,13.622,23.979,18.261
	c8.256,10.025,20.758,16.428,34.729,16.428c0.923,0,1.838-0.037,2.748-0.092c-6.394,3.884-13.13,7.015-20.484,8.826
	c-11.524,2.838-23.399,1.223-34.481-2.565C10.938,114.41,3,96.369,3,76.5C3,71.049,3.615,65.741,4.746,60.625z M27.833,131.514
	c9.716,2.672,19.652,3.388,29.742,1.415c9.789-1.915,18.78-6.734,26.967-12.268c14.324-2.762,26.245-12.336,32.251-25.21
	c0.372,7.471-0.078,14.887-1.995,22.213c-3.108,11.875-10.529,21.813-19.547,29.903C89.262,149.148,82.978,150,76.497,150
	C57.846,150,40.806,143.004,27.833,131.514z M100.604,145.919c7.374-7.452,13.064-16.128,16.238-26.307
	c2.971-9.527,3.031-19.715,2.061-29.557c1.355-4.28,2.091-8.833,2.091-13.556c0-7.442-1.828-14.461-5.041-20.65
	c6.123,4.257,11.728,9.145,16.306,15.12c7.538,9.836,10.931,21.916,11.743,34.133c0.007,0.113,0.03,0.216,0.06,0.314
	C135.948,124.302,120.139,139.116,100.604,145.919z"/>
</svg>
