<?xml version="1.0" encoding="utf-8"?>
<!-- Generator: Adobe Illustrator 16.0.0, SVG Export Plug-In . SVG Version: 6.00 Build 0)  -->
<!DOCTYPE svg PUBLIC "-//W3C//DTD SVG 1.1//EN" "http://www.w3.org/Graphics/SVG/1.1/DTD/svg11.dtd">
<svg version="1.1" id="Layer_1" xmlns="http://www.w3.org/2000/svg" xmlns:xlink="http://www.w3.org/1999/xlink" x="0px" y="0px"
	 width="124.69px" height="153px" viewBox="0 0 124.69 153" enable-background="new 0 0 124.69 153" xml:space="preserve">
<g>
	<path d="M110.514,11.408H1.5c-0.829,0-1.5,0.671-1.5,1.5V151.5c0,0.829,0.671,1.5,1.5,1.5h109.014c0.829,0,1.5-0.671,1.5-1.5
		V12.908C112.014,12.08,111.343,11.408,110.514,11.408z M49.539,66.631h12.936l5.9,11.833H43.639L49.539,66.631z M51.035,63.631
		l4.972-9.972l4.972,9.972H51.035z M42.715,81.464h26.584v67.889H42.715V81.464z M109.014,150H72.299V80.163
		c0.009-0.066,0.02-0.131,0.02-0.199c0-0.324-0.103-0.624-0.277-0.869L57.35,49.627c-0.254-0.509-0.773-0.831-1.342-0.831
		s-1.088,0.322-1.342,0.831L39.873,79.295c-0.005,0.011-0.006,0.023-0.012,0.034c-0.048,0.103-0.088,0.209-0.112,0.323
		c0,0.002-0.001,0.004-0.002,0.006c-0.021,0.099-0.032,0.202-0.032,0.307V150H3V14.408h106.014V150z"/>
	<path d="M123.19,0H13.468c-0.829,0-1.5,0.671-1.5,1.5S12.64,3,13.468,3H121.69v134.631c0,0.829,0.671,1.5,1.5,1.5
		s1.5-0.671,1.5-1.5V1.5C124.69,0.671,124.019,0,123.19,0z"/>
	<path d="M32.929,34.809h45.825c0.829,0,1.5-0.671,1.5-1.5s-0.671-1.5-1.5-1.5H32.929c-0.829,0-1.5,0.671-1.5,1.5
		S32.1,34.809,32.929,34.809z"/>
</g>
</svg>
