<?xml version="1.0" encoding="utf-8"?>
<!-- Generator: Adobe Illustrator 16.0.0, SVG Export Plug-In . SVG Version: 6.00 Build 0)  -->
<!DOCTYPE svg PUBLIC "-//W3C//DTD SVG 1.1//EN" "http://www.w3.org/Graphics/SVG/1.1/DTD/svg11.dtd">
<svg version="1.1" id="Layer_1" xmlns="http://www.w3.org/2000/svg" xmlns:xlink="http://www.w3.org/1999/xlink" x="0px" y="0px"
	 width="153px" height="135.434px" viewBox="0 0 153 135.434" enable-background="new 0 0 153 135.434" xml:space="preserve">
<path d="M151.5,0H1.5C0.671,0,0,0.671,0,1.5v108.243c0,0.829,0.671,1.5,1.5,1.5h54.007v21.19H24.886c-0.829,0-1.5,0.671-1.5,1.5
	s0.671,1.5,1.5,1.5h32.112c0.003,0,0.007,0.001,0.01,0.001h38.985c0.003,0,0.007-0.001,0.01-0.001h32.111c0.828,0,1.5-0.671,1.5-1.5
	s-0.672-1.5-1.5-1.5H97.493v-21.19H151.5c0.828,0,1.5-0.671,1.5-1.5V1.5C153,0.671,152.329,0,151.5,0z M94.493,132.433H58.507
	v-21.19h35.985V132.433z M67.682,37.964h17.637l8.25,16.547H59.431L67.682,37.964z M69.178,34.964L76.5,20.279l7.322,14.686H69.178z
	 M58.507,57.512h35.985v50.731H58.507V57.512z M150,108.243H97.493V56.206c0.009-0.064,0.02-0.127,0.02-0.194
	c0-0.324-0.103-0.624-0.276-0.869L77.843,16.248c-0.254-0.509-0.774-0.831-1.343-0.831s-1.089,0.322-1.343,0.831L55.665,55.342
	c-0.006,0.012-0.007,0.024-0.013,0.036c-0.047,0.1-0.085,0.204-0.108,0.314c-0.001,0.004-0.004,0.009-0.005,0.014
	c-0.021,0.099-0.031,0.201-0.031,0.306v52.231H3V3h147V108.243z"/>
</svg>
