<?xml version="1.0" encoding="utf-8"?>
<!-- Generator: Adobe Illustrator 16.0.0, SVG Export Plug-In . SVG Version: 6.00 Build 0)  -->
<!DOCTYPE svg PUBLIC "-//W3C//DTD SVG 1.1//EN" "http://www.w3.org/Graphics/SVG/1.1/DTD/svg11.dtd">
<svg version="1.1" id="Layer_1" xmlns="http://www.w3.org/2000/svg" xmlns:xlink="http://www.w3.org/1999/xlink" x="0px" y="0px"
	 width="153px" height="153px" viewBox="0 0 153 153" enable-background="new 0 0 153 153" xml:space="preserve">
<g>
	<path d="M40.227,73c3.568,0,5.334,2.073,7.379,4.473C49.813,80.063,52.315,83,57.268,83s7.455-2.937,9.662-5.527
		c2.045-2.4,3.811-4.473,7.379-4.473c3.568,0,5.334,2.073,7.38,4.473C83.896,80.063,86.399,83,91.353,83
		c4.954,0,7.457-2.937,9.664-5.527c2.045-2.4,3.812-4.473,7.38-4.473c0.829,0,1.5-0.671,1.5-1.5s-0.671-1.5-1.5-1.5
		c-4.953,0-7.456,2.936-9.663,5.527C96.688,77.927,94.921,80,91.353,80s-5.335-2.073-7.381-4.473C81.764,72.936,79.262,70,74.309,70
		c-4.953,0-7.455,2.937-9.662,5.527C62.602,77.927,60.835,80,57.268,80s-5.334-2.073-7.379-4.473C47.681,72.937,45.179,70,40.227,70
		c-0.829,0-1.5,0.671-1.5,1.5S39.398,73,40.227,73z"/>
	<path d="M139.398,76.5l13.163-13.163c0.281-0.281,0.439-0.663,0.439-1.061s-0.158-0.779-0.439-1.061L91.783,0.439
		c-0.586-0.586-1.535-0.586-2.121,0L76.5,13.602L63.338,0.439c-0.586-0.586-1.535-0.586-2.121,0L0.439,61.216
		C0.158,61.498,0,61.879,0,62.277s0.158,0.779,0.439,1.061L13.602,76.5L0.439,89.663c-0.586,0.585-0.586,1.536,0,2.121
		l60.775,60.777c0.281,0.281,0.663,0.439,1.061,0.439s0.779-0.158,1.061-0.439L76.5,139.397l13.164,13.164
		c0.281,0.281,0.663,0.439,1.061,0.439s0.779-0.158,1.061-0.439l60.775-60.777c0.586-0.585,0.586-1.536,0-2.121L139.398,76.5z
		 M90.723,3.621l58.656,58.656l-12.102,12.102L78.621,15.723L90.723,3.621z M135.155,76.5L76.5,135.154L17.845,76.5L76.5,17.844
		L135.155,76.5z M3.622,62.277L62.277,3.621l12.102,12.102L15.724,74.378L3.622,62.277z M62.275,149.379L3.621,90.723l12.102-12.102
		l58.656,58.654L62.275,149.379z M90.725,149.379l-12.104-12.104l58.656-58.654l12.102,12.102L90.725,149.379z"/>
</g>
</svg>
