<?xml version="1.0" encoding="utf-8"?>
<!-- Generator: Adobe Illustrator 16.0.0, SVG Export Plug-In . SVG Version: 6.00 Build 0)  -->
<!DOCTYPE svg PUBLIC "-//W3C//DTD SVG 1.1//EN" "http://www.w3.org/Graphics/SVG/1.1/DTD/svg11.dtd">
<svg width="152.977px" height="172.506px" viewBox="0 0 152.977 172.506" enable-background="new 0 0 152.977 172.506"
	 xml:space="preserve">
<g>
	<path d="M59.338,157.713C26.147,149.78,2.98,120.37,3,86.193c0.021-34.109,23.167-63.478,56.288-71.42
		c3.778-0.905,7.655-1.494,11.555-1.792l-8.756,9.448l2.205,2.039l12.242-13.216L62.463,0l-1.877,2.344l9.603,7.676
		c-3.915,0.32-7.805,0.927-11.6,1.836C24.114,20.123,0.021,50.69,0,86.191c-0.021,35.571,24.093,66.183,58.641,74.44
		c0.117,0.028,0.234,0.042,0.35,0.042c0.678,0,1.293-0.463,1.458-1.152C60.641,158.715,60.144,157.906,59.338,157.713z"/>
	<path d="M152.977,86.283c0.021-35.552-24.08-66.16-58.607-74.433c-0.804-0.191-1.615,0.303-1.808,1.109
		c-0.193,0.806,0.303,1.615,1.109,1.808c33.172,7.948,56.327,37.355,56.307,71.514c-0.023,38.64-29.616,70.314-67.822,73.211
		l8.758-9.415l-2.2-2.043l-12.27,13.194l14.049,11.277l1.882-2.34l-9.608-7.709C122.349,159.261,152.952,126.372,152.977,86.283z"/>
	<path d="M42.736,100.476c-0.817,0.776-1.771,1.374-2.861,1.792c-1.09,0.42-2.264,0.629-3.521,0.629
		c-2.474,0-4.401-0.503-5.784-1.509c-1.384-1.006-2.453-2.704-3.207-5.093l-5.346,1.761c1.132,3.312,2.956,5.702,5.471,7.168
		c2.516,1.467,5.471,2.201,8.866,2.201c1.971,0,3.846-0.273,5.628-0.817c1.781-0.544,3.343-1.362,4.685-2.452
		c1.342-1.09,2.41-2.431,3.207-4.024c0.796-1.593,1.195-3.458,1.195-5.597c0-1.383-0.21-2.704-0.629-3.961
		c-0.42-1.258-1.027-2.378-1.823-3.364c-0.797-0.984-1.751-1.813-2.861-2.483c-1.111-0.67-2.38-1.132-3.805-1.384v-0.125
		c2.264-0.712,4.098-2.001,5.502-3.867c1.404-1.865,2.106-3.972,2.106-6.32c0-1.928-0.356-3.616-1.068-5.062
		c-0.714-1.446-1.678-2.65-2.893-3.615c-1.217-0.964-2.631-1.698-4.245-2.201s-3.301-0.754-5.062-0.754
		c-2.852,0-5.439,0.629-7.766,1.886c-2.327,1.258-4.035,3.144-5.125,5.66l5.094,1.949c0.796-1.635,1.886-2.871,3.27-3.71
		c1.384-0.838,3.019-1.258,4.904-1.258c2.264,0,4.098,0.66,5.503,1.981c1.403,1.32,2.106,3.112,2.106,5.376
		c0,1.677-0.325,3.029-0.975,4.056c-0.65,1.028-1.469,1.813-2.453,2.358c-0.985,0.545-2.075,0.902-3.27,1.069
		c-1.194,0.168-2.337,0.251-3.427,0.251h-1.635v4.528h1.635c1.383,0,2.745,0.147,4.087,0.44c1.341,0.294,2.547,0.766,3.616,1.415
		c1.068,0.65,1.928,1.531,2.578,2.641c0.649,1.111,0.975,2.484,0.975,4.119c0,1.3-0.242,2.483-0.724,3.553
		C44.203,98.778,43.554,99.701,42.736,100.476z"/>
	<path d="M82.761,99.313c0.755-1.719,1.132-3.668,1.132-5.848c0-2.053-0.336-3.94-1.006-5.659c-0.671-1.719-1.604-3.196-2.799-4.433
		c-1.194-1.236-2.62-2.19-4.275-2.861c-1.656-0.67-3.449-1.006-5.376-1.006c-0.923,0-1.94,0.105-3.05,0.314
		c-1.111,0.21-2.086,0.545-2.925,1.006L64.337,80.7l11.947-18.55h-6.162L58.3,80.952c-1.216,1.929-2.223,3.857-3.019,5.785
		c-0.797,1.929-1.194,4.172-1.194,6.729c0,2.18,0.377,4.129,1.132,5.848c0.755,1.719,1.802,3.175,3.145,4.37
		c1.341,1.195,2.924,2.117,4.747,2.767s3.783,0.975,5.88,0.975c2.096,0,4.056-0.325,5.879-0.975s3.405-1.572,4.748-2.767
		C80.958,102.488,82.006,101.032,82.761,99.313z M77.856,97.395c-0.504,1.153-1.186,2.138-2.044,2.956
		c-0.859,0.817-1.877,1.446-3.05,1.886c-1.174,0.44-2.432,0.66-3.772,0.66c-1.343,0-2.601-0.22-3.773-0.66
		c-1.174-0.44-2.19-1.069-3.05-1.886c-0.859-0.818-1.54-1.802-2.044-2.956c-0.503-1.152-0.754-2.462-0.754-3.93
		c0-1.425,0.251-2.725,0.754-3.898c0.504-1.173,1.185-2.169,2.044-2.987c0.859-0.818,1.876-1.446,3.05-1.887
		c1.173-0.44,2.431-0.66,3.773-0.66c1.341,0,2.599,0.22,3.772,0.66c1.173,0.44,2.19,1.069,3.05,1.887
		c0.858,0.817,1.54,1.813,2.044,2.987c0.503,1.174,0.754,2.474,0.754,3.898C78.61,94.933,78.359,96.243,77.856,97.395z"/>
	<path d="M88.671,99.722c1.132,2.243,2.673,4.087,4.622,5.533s4.454,2.169,7.515,2.169c3.06,0,5.564-0.723,7.514-2.169
		s3.49-3.29,4.622-5.533c1.132-2.242,1.907-4.726,2.326-7.452c0.419-2.725,0.629-5.345,0.629-7.86c0-2.516-0.21-5.135-0.629-7.86
		c-0.419-2.725-1.194-5.208-2.326-7.452c-1.132-2.242-2.673-4.087-4.622-5.533s-4.454-2.169-7.514-2.169
		c-3.061,0-5.565,0.723-7.515,2.169s-3.49,3.292-4.622,5.533c-1.132,2.243-1.908,4.727-2.326,7.452
		c-0.42,2.726-0.629,5.345-0.629,7.86c0,2.515,0.209,5.135,0.629,7.86C86.763,94.996,87.539,97.479,88.671,99.722z M91.123,80.763
		c0.084-1.341,0.241-2.693,0.472-4.056c0.23-1.362,0.566-2.693,1.007-3.993c0.439-1.299,1.026-2.452,1.761-3.458
		c0.732-1.006,1.624-1.813,2.672-2.421c1.048-0.607,2.305-0.912,3.773-0.912c1.467,0,2.724,0.305,3.772,0.912
		c1.047,0.608,1.938,1.415,2.673,2.421c0.732,1.006,1.32,2.16,1.76,3.458c0.44,1.3,0.775,2.631,1.007,3.993
		c0.229,1.363,0.387,2.715,0.472,4.056c0.083,1.342,0.125,2.558,0.125,3.647c0,1.09-0.042,2.306-0.125,3.647
		c-0.085,1.342-0.242,2.694-0.472,4.056c-0.231,1.363-0.566,2.694-1.007,3.993c-0.439,1.3-1.027,2.452-1.76,3.458
		c-0.734,1.006-1.626,1.813-2.673,2.421c-1.049,0.608-2.306,0.912-3.772,0.912c-1.469,0-2.726-0.304-3.773-0.912
		c-1.048-0.607-1.939-1.415-2.672-2.421c-0.734-1.006-1.321-2.159-1.761-3.458c-0.44-1.299-0.776-2.63-1.007-3.993
		c-0.23-1.362-0.388-2.713-0.472-4.056c-0.084-1.341-0.125-2.557-0.125-3.647C90.998,83.32,91.039,82.105,91.123,80.763z"/>
	<path d="M124.199,78.688c1.09,0.461,2.264,0.691,3.521,0.691s2.431-0.23,3.521-0.691c1.09-0.461,2.044-1.101,2.861-1.918
		s1.456-1.771,1.918-2.861c0.46-1.089,0.691-2.264,0.691-3.521c0-1.257-0.231-2.431-0.691-3.521
		c-0.462-1.09-1.101-2.044-1.918-2.861s-1.771-1.456-2.861-1.918c-1.091-0.46-2.264-0.691-3.521-0.691s-2.432,0.231-3.521,0.691
		c-1.091,0.462-2.043,1.101-2.861,1.918c-0.817,0.817-1.457,1.771-1.917,2.861c-0.462,1.09-0.692,2.264-0.692,3.521
		c0,1.258,0.23,2.432,0.692,3.521c0.46,1.091,1.1,2.044,1.917,2.861C122.156,77.587,123.108,78.227,124.199,78.688z M122.533,68.438
		c0.272-0.67,0.649-1.278,1.132-1.823c0.481-0.544,1.069-0.985,1.761-1.321c0.691-0.335,1.456-0.503,2.295-0.503
		c0.838,0,1.604,0.168,2.295,0.503c0.692,0.336,1.278,0.776,1.761,1.321c0.481,0.545,0.859,1.153,1.132,1.823
		c0.272,0.671,0.409,1.321,0.409,1.949c0,0.629-0.137,1.279-0.409,1.95c-0.272,0.671-0.65,1.279-1.132,1.823
		c-0.482,0.545-1.068,0.986-1.761,1.321c-0.691,0.336-1.457,0.503-2.295,0.503c-0.839,0-1.604-0.167-2.295-0.503
		c-0.691-0.335-1.279-0.775-1.761-1.321c-0.482-0.544-0.859-1.152-1.132-1.823c-0.273-0.67-0.409-1.321-0.409-1.95
		C122.124,69.759,122.26,69.109,122.533,68.438z"/>
</g>
</svg>
