<?xml version="1.0" encoding="utf-8"?>
<!-- Generator: Adobe Illustrator 16.0.0, SVG Export Plug-In . SVG Version: 6.00 Build 0)  -->
<!DOCTYPE svg PUBLIC "-//W3C//DTD SVG 1.1//EN" "http://www.w3.org/Graphics/SVG/1.1/DTD/svg11.dtd">
<svg version="1.1" id="Layer_1" xmlns="http://www.w3.org/2000/svg" xmlns:xlink="http://www.w3.org/1999/xlink" x="0px" y="0px"
	 width="125.073px" height="153px" viewBox="0 0 125.073 153" enable-background="new 0 0 125.073 153" xml:space="preserve">
<g>
	<path d="M124.688,151.188c-0.327-1.539-8.14-37.799-19.928-47.665c-3.086-2.583-9.88-5.802-20.219-9.583
		c16.98-8.118,28.142-25.566,28.142-44.571C112.684,22.147,90.537,0,63.314,0C36.091,0,13.943,22.147,13.943,49.37
		c0,18.807,10.523,35.716,27.116,44.075c-11.508,4.019-19.007,7.485-22.316,10.319c-11.56,9.9-18.151,45.941-18.426,47.471L0,153
		h125.073L124.688,151.188z M3.611,150c1.483-7.407,7.707-35.928,17.083-43.958c3.298-2.824,11.905-6.619,24.889-10.974l3.812-1.279
		l-3.718-1.531C28.222,85.073,16.943,68.238,16.943,49.37C16.943,23.802,37.745,3,63.314,3c25.568,0,46.37,20.802,46.37,46.37
		c0,19.067-11.964,36.467-29.771,43.299l-3.814,1.463l3.855,1.353c11.86,4.162,19.772,7.737,22.881,10.339
		c9.578,8.015,16.762,36.664,18.51,44.176H3.611z"/>
	<path d="M94.905,53.091c2.435-2.446,4.538-4.559,8.893-4.559c0.829,0,1.5-0.671,1.5-1.5s-0.671-1.5-1.5-1.5
		c-5.601,0-8.479,2.891-11.019,5.442c-2.435,2.446-4.538,4.558-8.892,4.558s-6.457-2.112-8.892-4.558
		c-2.539-2.551-5.417-5.442-11.018-5.442c-5.601,0-8.478,2.891-11.017,5.442c-2.435,2.446-4.537,4.558-8.891,4.558
		s-6.456-2.112-8.891-4.558c-2.539-2.551-5.416-5.442-11.016-5.442c-0.829,0-1.5,0.671-1.5,1.5s0.671,1.5,1.5,1.5
		c4.353,0,6.456,2.112,8.89,4.558c2.539,2.551,5.417,5.442,11.017,5.442s8.478-2.891,11.017-5.442
		c2.435-2.446,4.537-4.558,8.891-4.558s6.457,2.112,8.892,4.558c2.539,2.551,5.417,5.442,11.018,5.442
		C89.487,58.533,92.366,55.642,94.905,53.091z"/>
</g>
</svg>
